# xmcd
# 
# Track frame offsets:
#     150
#     23555
#     36459
#     59864
#     75326
#     96031
#     113214
#     128557
# 
# Disc length: 1956
# 
# Revision: 0
# Processed by: cddbd v1.5.2PL0 Copyright (c) Steve Scherf et al.
# Submitted via: fre:ac v1.0.17
# 
DISCID=6007a208
DTITLE=Pornophonique - 8-bit lagerfeuer
DYEAR=0
DGENRE=Rock
TTITLE0=sad robot
TTITLE1=take me to the bonuslevel because i need an extralife
TTITLE2=lemmings in love
TTITLE3=space invaders
TTITLE4=i want to be a machine
TTITLE5=1/2 player game
TTITLE6=game over
TTITLE7=rock'n'roll hall of fame
EXTD=
EXTT0=
EXTT1=
EXTT2=
EXTT3=
EXTT4=
EXTT5=
EXTT6=
EXTT7=
PLAYORDER=
